<svg width="137" height="47" viewBox="0 0 137 47" fill="none" xmlns="http://www.w3.org/2000/svg">
<path d="M95.8505 24.4568C93.5976 25.262 93.3473 32.0901 93.5038 35.4035C93.5038 35.6048 93.2952 35.6552 93.1909 35.6552C92.8154 35.6552 92.7215 35.4874 92.7215 35.4035V34.3969L92.878 30.1189L93.1909 27.0991C92.5651 22.4687 88.341 21.5628 86.3071 21.6886C83.9291 21.9906 79.4755 20.724 77.546 20.0529C73.6661 18.241 72.9047 15.5232 73.009 14.3908C73.6348 12.1763 76.2944 11.371 77.546 11.2452C80.8001 10.2386 86.7243 14.0972 89.2797 16.1523C90.7816 16.8569 92.5129 21.2273 93.1909 23.3243L93.8167 17.6622C94.1922 16.7562 93.1387 13.4261 92.5651 11.8743C91.3135 4.19897 95.3512 1.47275 97.7279 0.298373C101.107 -0.808886 103.308 1.4308 103.986 2.68904C105.613 7.11808 100.492 12.5034 97.7279 14.6424C95.8505 15.649 95.0683 17.1589 94.9118 17.6622C94.7867 18.0648 94.2339 21.9402 93.9731 23.8276C95.2247 18.1907 100.857 14.6844 103.517 13.6358C109.649 10.616 113.06 13.4681 113.999 15.2716C114.124 20.5059 106.02 22.5694 101.952 22.9469C97.5714 22.7455 96.0591 23.8696 95.8505 24.4568Z" fill="#2EA748"/>
<path d="M2.4 40.2069V23.4069H13.2V25.3749H4.656V30.5829H12.48V32.5509H4.656V38.2389H13.2V40.2069H2.4ZM15.2484 40.2069L20.0244 33.7509L15.4884 27.4869H17.9364L21.2964 32.1189L24.6564 27.4869H27.0084L22.4724 33.6309L27.2484 40.2069H24.7524L21.2004 35.2389L17.6484 40.2069H15.2484ZM29.7638 45.0069V27.4869H31.7318V29.8869C32.1638 29.0389 32.7638 28.3909 33.5318 27.9429C34.3158 27.4789 35.2198 27.2469 36.2438 27.2469C37.8438 27.2469 39.1238 27.7749 40.0838 28.8309C41.0438 29.8709 41.5238 31.4229 41.5238 33.4869V33.9669C41.5238 35.4069 41.2998 36.6069 40.8518 37.5669C40.4198 38.5269 39.8038 39.2469 39.0038 39.7269C38.2198 40.2069 37.2998 40.4469 36.2438 40.4469C35.1558 40.4469 34.2438 40.2069 33.5078 39.7269C32.7878 39.2469 32.2438 38.6469 31.8758 37.9269V45.0069H29.7638ZM35.7638 38.5749C36.8038 38.5749 37.6678 38.1829 38.3558 37.3989C39.0598 36.6149 39.4118 35.4709 39.4118 33.9669V33.4869C39.4118 32.0949 39.0598 31.0229 38.3558 30.2709C37.6678 29.5029 36.8038 29.1189 35.7638 29.1189C34.9958 29.1189 34.3158 29.2789 33.7238 29.5989C33.1478 29.9189 32.6918 30.3589 32.3558 30.9189C32.0358 31.4629 31.8758 32.0789 31.8758 32.7669V34.6869C31.8758 35.4549 32.0358 36.1349 32.3558 36.7269C32.6918 37.3029 33.1478 37.7589 33.7238 38.0949C34.3158 38.4149 34.9958 38.5749 35.7638 38.5749ZM49.8094 40.4469C48.7374 40.4469 47.7294 40.2149 46.7854 39.7509C45.8574 39.2709 45.1054 38.5509 44.5294 37.5909C43.9694 36.6309 43.6894 35.4229 43.6894 33.9669V33.4869C43.6894 32.1109 43.9694 30.9589 44.5294 30.0309C45.1054 29.1029 45.8574 28.4069 46.7854 27.9429C47.7294 27.4789 48.7374 27.2469 49.8094 27.2469C50.8974 27.2469 51.9054 27.4789 52.8334 27.9429C53.7614 28.4069 54.5054 29.1029 55.0654 30.0309C55.6414 30.9589 55.9294 32.1109 55.9294 33.4869V33.9669C55.9294 35.4229 55.6414 36.6309 55.0654 37.5909C54.5054 38.5509 53.7614 39.2709 52.8334 39.7509C51.9054 40.2149 50.8974 40.4469 49.8094 40.4469ZM49.8094 38.5269C50.4654 38.5269 51.0894 38.3829 51.6814 38.0949C52.2894 37.7909 52.7854 37.3029 53.1694 36.6309C53.5694 35.9589 53.7694 35.0709 53.7694 33.9669V33.4869C53.7694 32.4629 53.5694 31.6389 53.1694 31.0149C52.7854 30.3749 52.2894 29.9109 51.6814 29.6229C51.0894 29.3189 50.4654 29.1669 49.8094 29.1669C49.1694 29.1669 48.5454 29.3189 47.9374 29.6229C47.3294 29.9109 46.8254 30.3749 46.4254 31.0149C46.0414 31.6389 45.8494 32.4629 45.8494 33.4869V33.9669C45.8494 35.0709 46.0414 35.9589 46.4254 36.6309C46.8254 37.3029 47.3294 37.7909 47.9374 38.0949C48.5454 38.3829 49.1694 38.5269 49.8094 38.5269ZM62.76 40.3269C61.88 40.3269 61.16 40.1909 60.6 39.9189C60.056 39.6309 59.656 39.1909 59.4 38.5989C59.16 37.9909 59.04 37.2069 59.04 36.2469V23.4069H61.152V36.2469C61.152 37.0789 61.288 37.6469 61.56 37.9509C61.832 38.2549 62.312 38.4069 63 38.4069C63.176 38.4069 63.328 38.4069 63.456 38.4069C63.584 38.3909 63.712 38.3749 63.84 38.3589V40.2309C63.76 40.2469 63.648 40.2629 63.504 40.2789C63.376 40.2949 63.24 40.3029 63.096 40.3029C62.968 40.3189 62.856 40.3269 62.76 40.3269ZM70.2315 40.4469C69.3035 40.4469 68.5115 40.2789 67.8555 39.9429C67.2155 39.5909 66.7275 39.1189 66.3915 38.5269C66.0555 37.9189 65.8875 37.2389 65.8875 36.4869C65.8875 35.2229 66.2555 34.3109 66.9915 33.7509C67.7435 33.1909 68.8155 32.9109 70.2075 32.9109H74.3355V32.0469C74.3355 30.9589 74.0875 30.2069 73.5915 29.7909C73.1115 29.3749 72.3835 29.1669 71.4075 29.1669C70.4955 29.1669 69.8315 29.3429 69.4155 29.6949C68.9995 30.0309 68.7675 30.4149 68.7195 30.8469H66.6075C66.6555 30.1589 66.8875 29.5509 67.3035 29.0229C67.7195 28.4789 68.2875 28.0469 69.0075 27.7269C69.7275 27.4069 70.5675 27.2469 71.5275 27.2469C72.5355 27.2469 73.4075 27.4069 74.1435 27.7269C74.8795 28.0309 75.4475 28.5189 75.8475 29.1909C76.2475 29.8469 76.4475 30.7189 76.4475 31.8069V36.9669C76.4475 37.6389 76.4475 38.2309 76.4475 38.7429C76.4635 39.2389 76.5035 39.7269 76.5675 40.2069H74.7195C74.6715 39.8389 74.6395 39.4949 74.6235 39.1749C74.6075 38.8389 74.5995 38.4629 74.5995 38.0469C74.2635 38.7189 73.7195 39.2869 72.9675 39.7509C72.2155 40.2149 71.3035 40.4469 70.2315 40.4469ZM70.6875 38.5269C71.3595 38.5269 71.9675 38.4069 72.5115 38.1669C73.0715 37.9269 73.5115 37.5749 73.8315 37.1109C74.1675 36.6469 74.3355 36.0789 74.3355 35.4069V34.5429H70.5675C69.7835 34.5429 69.1675 34.7029 68.7195 35.0229C68.2715 35.3269 68.0475 35.8149 68.0475 36.4869C68.0475 37.0789 68.2555 37.5669 68.6715 37.9509C69.1035 38.3349 69.7755 38.5269 70.6875 38.5269ZM80.1778 40.2069V27.4869H82.1458V29.8869C82.3378 29.3749 82.6018 28.9269 82.9378 28.5429C83.2738 28.1429 83.6818 27.8309 84.1618 27.6069C84.6578 27.3669 85.2098 27.2469 85.8178 27.2469C86.1378 27.2469 86.3938 27.2629 86.5858 27.2949C86.7938 27.3269 86.9778 27.3669 87.1378 27.4149V29.3829C86.9298 29.3029 86.7218 29.2469 86.5138 29.2149C86.3218 29.1829 86.0498 29.1669 85.6978 29.1669C85.0578 29.1669 84.4818 29.3189 83.9698 29.6229C83.4578 29.9269 83.0498 30.3509 82.7458 30.8949C82.4418 31.4229 82.2898 32.0469 82.2898 32.7669V40.2069H80.1778ZM112.209 40.3269C111.313 40.3269 110.577 40.1909 110.001 39.9189C109.441 39.6469 109.025 39.2389 108.753 38.6949C108.497 38.1349 108.369 37.4389 108.369 36.6069V29.3589H106.449V27.4869H108.369V24.6069H110.481V27.4869H113.889V29.3589H110.481V36.3669C110.481 37.0869 110.633 37.6069 110.937 37.9269C111.241 38.2469 111.825 38.4069 112.689 38.4069C113.169 38.4069 113.649 38.3829 114.129 38.3349V40.2069C113.825 40.2389 113.521 40.2629 113.217 40.2789C112.913 40.3109 112.577 40.3269 112.209 40.3269ZM119.288 45.2469C119.048 45.2469 118.808 45.2229 118.568 45.1749V43.2549C118.808 43.3029 119.048 43.3269 119.288 43.3269C119.608 43.3269 119.872 43.2469 120.08 43.0869C120.304 42.9429 120.528 42.6469 120.752 42.1989C120.976 41.7509 121.248 41.0869 121.568 40.2069L116.168 27.4869H118.52L122.648 37.8069L126.392 27.4869H128.648L123.848 40.2069C123.4 41.4069 122.968 42.3749 122.552 43.1109C122.152 43.8469 121.696 44.3829 121.184 44.7189C120.688 45.0709 120.056 45.2469 119.288 45.2469Z" fill="white"/>
</svg>
